ply
format ascii 1.0
element vertex 1215
property float x
property float y
property float z
property uchar diffuse_red
property uchar diffuse_green
property uchar diffuse_blue
end_header
-0.534558 0.0355125 -0.0568963 71 15 2
-0.534254 0.0377003 -0.0568599 64 17 7
-0.53395 0.0398895 -0.0568234 59 14 9
-0.534414 0.0423285 -0.0574453 55 16 14
-0.531057 0.032443 -0.0565361 64 22 17
-0.532272 0.0350811 -0.0578106 65 15 13
-0.531969 0.0372646 -0.0577747 62 19 12
-0.532427 0.0396922 -0.0583978 57 14 14
-0.532123 0.0418829 -0.0583618 64 14 5
-0.532582 0.0443274 -0.0589872 65 13 8
-0.533043 0.0467832 -0.0596151 62 15 14
-0.529095 0.0298526 -0.0574805 141 55 31
-0.528793 0.0320203 -0.0574454 108 47 26
-0.528491 0.0341895 -0.0574102 86 18 24
-0.528939 0.0365949 -0.0580293 77 21 8
-0.530145 0.0392526 -0.0593102 71 18 9
-0.530599 0.0416856 -0.0599369 62 12 19
-0.531055 0.0441298 -0.060566 63 17 16
-0.532278 0.0468439 -0.0618676 62 17 19
-0.53274 0.0493163 -0.0625044 68 12 8
-0.533203 0.0518003 -0.0631438 65 15 6
-0.527887 0.0274899 -0.0590753 148 82 53
-0.526839 0.0294357 -0.0583858 144 77 65
-0.525794 0.0313752 -0.057699 154 86 64
-0.526235 0.0337641 -0.0583167 153 74 55
-0.526678 0.036164 -0.0589368 118 52 36
-0.527122 0.0385749 -0.0595594 98 24 18
-0.52832 0.0412421 -0.060847 87 18 16
-0.528769 0.0436806 -0.0614772 79 14 20
-0.529981 0.0463875 -0.0627803 70 20 17
-0.530436 0.0488541 -0.0634182 63 20 7
-0.530893 0.0513321 -0.0640587 63 15 0
-0.531352 0.0538217 -0.0647018 66 14 7
-0.531042 0.0560435 -0.0646663 68 20 6
-0.531501 0.0585506 -0.0653118 61 13 11
-0.527429 0.0253407 -0.0613301 133 64 37
-0.526378 0.0272935 -0.0606353 153 76 55
-0.524592 0.0290205 -0.0592877 157 77 51
-0.52429 0.0311798 -0.0592538 162 80 57
-0.523989 0.0333405 -0.0592198 170 82 61
-0.524425 0.0357349 -0.059841 175 78 58
-0.524863 0.0381402 -0.0604646 187 62 47
-0.525303 0.0405565 -0.0610908 196 48 31
-0.526493 0.0432332 -0.062385 162 39 32
-0.527692 0.0459329 -0.0636897 105 23 25
-0.528141 0.0483936 -0.0643286 73 22 16
-0.528592 0.0508659 -0.0649701 63 18 3
-0.528283 0.0530773 -0.0649353 56 18 14
-0.528735 0.0555669 -0.0655794 64 15 12
-0.528425 0.0577857 -0.0655445 60 13 14
-0.528115 0.0600059 -0.0655095 60 23 13
-0.526968 0.0231841 -0.0635933 162 37 21
-0.525917 0.0251438 -0.062893 196 47 34
-0.525613 0.0273134 -0.0628594 202 56 50
-0.523088 0.028825 -0.0608423 175 50 41
-0.522786 0.0309844 -0.0608088 159 40 54
-0.522484 0.0331452 -0.0607753 164 52 51
-0.522181 0.0353074 -0.0607418 190 64 50
-0.522613 0.0377071 -0.0613665 208 56 52
-0.523047 0.0401179 -0.0619937 217 58 50
-0.524225 0.0427875 -0.0632894 203 63 57
-0.525413 0.0454801 -0.0645956 184 51 55
-0.525856 0.0479351 -0.0652356 146 44 36
-0.525548 0.0501363 -0.0652015 95 24 23
-0.52524 0.0523389 -0.0651673 62 21 23
-0.524931 0.0545429 -0.0651331 62 17 15
-0.524623 0.0567483 -0.0650989 66 14 21
-0.524314 0.0589552 -0.0650647 58 18 17
-0.524005 0.0611634 -0.0650305 53 24 18
-0.526507 0.0210199 -0.0658648 206 58 45
-0.525454 0.0229866 -0.0651591 227 63 53
-0.525149 0.0251593 -0.0651259 226 56 57
-0.522622 0.0266855 -0.0630916 221 55 55
-0.521584 0.0286294 -0.062397 209 48 53
-0.520551 0.0305669 -0.0617051 207 46 51
-0.520249 0.0327236 -0.0616721 211 57 49
-0.519946 0.0348816 -0.0616391 217 58 53
-0.520373 0.0372758 -0.0622649 226 58 57
-0.5208 0.039681 -0.0628932 220 60 52
-0.521967 0.0423436 -0.0641904 212 54 53
-0.523887 0.0452829 -0.0661727 207 57 55
-0.523579 0.0474783 -0.0661391 190 58 58
-0.523271 0.0496752 -0.0661056 173 45 51
-0.522963 0.0518734 -0.066072 111 28 29
-0.522655 0.0540731 -0.0660384 74 19 12
-0.522346 0.0562742 -0.0660048 71 12 12
-0.522038 0.0584767 -0.0659712 66 21 14
-0.521729 0.0606806 -0.0659375 65 19 11
-0.522163 0.0631764 -0.0665805 59 16 13
-0.526044 0.0188482 -0.0681447 219 59 58
-0.52499 0.0208219 -0.0674334 229 58 52
-0.523939 0.0227892 -0.0667251 237 57 50
-0.523634 0.024962 -0.0666924 230 56 59
-0.521115 0.0264894 -0.0646492 227 50 56
-0.52008 0.0284338 -0.063952 228 51 54
-0.519049 0.0303719 -0.0632574 228 52 57
-0.518746 0.0325286 -0.063225 225 56 52
-0.518443 0.0346866 -0.0631925 224 55 48
-0.518866 0.0370806 -0.0638219 222 50 52
-0.519291 0.0394855 -0.0644537 212 53 51
-0.519717 0.0419014 -0.0650881 211 50 47
-0.522361 0.0450857 -0.06775 208 55 47
-0.522053 0.0472812 -0.0677169 195 59 56
-0.521744 0.0494782 -0.0676839 180 44 50
-0.521436 0.0516766 -0.0676508 166 40 51
-0.521127 0.0538764 -0.0676177 117 38 29
-0.520818 0.0560775 -0.0675846 79 13 8
-0.520509 0.0582801 -0.0675515 64 12 11
-0.520199 0.0604842 -0.0675183 65 18 7
-0.51989 0.0626896 -0.0674852 59 17 4
-0.52558 0.0166688 -0.070433 222 62 54
-0.524524 0.0186497 -0.0697162 223 55 51
-0.523472 0.0206239 -0.0690023 220 45 48
-0.523166 0.0227998 -0.06897 232 57 52
-0.522119 0.0247646 -0.0682591 239 51 55
-0.521075 0.0267228 -0.0675509 231 51 48
-0.519304 0.028456 -0.066175 235 54 45
-0.518272 0.0303979 -0.0654752 229 50 45
-0.517968 0.0325591 -0.0654432 220 44 51
-0.517664 0.0347215 -0.0654112 211 47 56
-0.51736 0.0368854 -0.0653791 214 46 47
-0.518509 0.0395304 -0.0666847 207 44 47
-0.518203 0.0417056 -0.0666525 207 50 47
-0.520096 0.0446354 -0.0686466 198 47 50
-0.520526 0.0470841 -0.069295 182 47 53
-0.520217 0.0492812 -0.0692625 171 44 51
-0.519908 0.0514796 -0.0692299 173 47 56
-0.519599 0.0536795 -0.0691973 153 48 49
-0.519289 0.0558808 -0.0691647 99 24 15
-0.518979 0.0580835 -0.0691321 66 18 9
-0.518669 0.0602877 -0.0690994 62 20 9
-0.519096 0.0627828 -0.0697498 65 19 12
-0.520266 0.065586 -0.0710915 65 17 12
-0.525868 0.0146752 -0.0734231 221 61 49
-0.524057 0.0164698 -0.0720074 228 53 52
-0.523004 0.0184511 -0.071288 217 52 46
-0.522697 0.0206301 -0.0712562 210 47 46
-0.521648 0.0226019 -0.0705397 228 55 51
-0.520603 0.0245671 -0.069826 233 54 52
-0.519562 0.0265259 -0.0691152 230 52 46
-0.519256 0.0286973 -0.0690835 225 45 48
-0.51895 0.0308702 -0.0690518 217 47 47
-0.517914 0.0328165 -0.068344 214 45 41
-0.517608 0.0349878 -0.0683123 209 43 47
-0.517302 0.0371604 -0.0682806 208 50 52
-0.516996 0.0393344 -0.0682489 205 45 54
-0.517417 0.0417551 -0.0688931 199 48 52
-0.518572 0.0444385 -0.0702212 186 44 53
-0.518999 0.0468869 -0.0708733 172 42 52
-0.51869 0.0490841 -0.0708412 162 43 51
-0.51838 0.0512827 -0.0708092 163 38 46
-0.51807 0.0534827 -0.0707771 157 42 45
-0.518496 0.0559599 -0.0714315 115 37 32
-0.518185 0.0581672 -0.0713993 77 19 23
-0.517874 0.0603759 -0.0713671 66 17 16
-0.518299 0.0628764 -0.0720239 63 14 11
-0.518726 0.0653884 -0.0726835 61 17 16
-0.522151 0.0691316 -0.0761524 62 16 15
-0.524339 0.0144752 -0.0750036 230 56 56
-0.522534 0.0162707 -0.0735821 229 57 56
-0.521483 0.0182526 -0.07286 217 56 53
-0.521176 0.0204317 -0.0728287 213 50 53
-0.520868 0.0226122 -0.0727975 218 48 53
-0.519822 0.0245814 -0.0720783 223 50 49
-0.51878 0.0265442 -0.071362 219 44 47
-0.517742 0.0285005 -0.0706486 211 42 51
-0.517436 0.0306734 -0.0706174 203 41 48
-0.517129 0.0328477 -0.0705862 198 44 40
-0.516096 0.0347916 -0.0698757 199 36 39
-0.515789 0.0369644 -0.0698445 196 45 53
-0.516208 0.039379 -0.0704924 192 42 52
-0.5159 0.0415589 -0.0704611 186 39 47
-0.516319 0.0439904 -0.0711116 187 44 34
-0.51674 0.046433 -0.0717646 173 45 45
-0.517162 0.048887 -0.0724203 157 42 43
-0.516852 0.0510857 -0.0723887 154 41 37
-0.517274 0.0535568 -0.0730469 153 41 42
-0.516963 0.0557627 -0.0730152 136 42 34
-0.517387 0.0582512 -0.073676 89 16 34
-0.517075 0.0604645 -0.0736442 72 22 19
-0.517499 0.0629703 -0.0743075 65 27 2
-0.517185 0.0651909 -0.0742757 65 16 5
-0.518352 0.0680169 -0.0756423 66 14 14
-0.523871 0.0122758 -0.077318 221 66 56
-0.52281 0.0142752 -0.0765845 232 62 60
-0.521011 0.0160716 -0.0751571 231 57 56
-0.519962 0.018054 -0.0744323 228 57 51
-0.519655 0.0202332 -0.0744015 216 53 54
-0.519346 0.0224138 -0.0743707 214 49 54
-0.519038 0.0245957 -0.0743399 217 42 47
-0.517263 0.0263468 -0.07293 206 38 47
-0.516228 0.0283036 -0.0722139 202 36 42
-0.515921 0.0304766 -0.0721832 191 38 40
-0.515614 0.032651 -0.0721525 184 39 40
-0.515306 0.0348268 -0.0721217 185 36 50
-0.514999 0.037004 -0.072091 186 38 52
-0.514691 0.0391826 -0.0720602 180 36 41
-0.514383 0.0413626 -0.0720294 175 40 35
-0.514798 0.0437938 -0.0726835 176 45 33
-0.515215 0.0462362 -0.0733402 166 40 40
-0.515634 0.0486899 -0.0739996 158 34 32
-0.516054 0.0511548 -0.0746615 151 37 28
-0.516475 0.0536312 -0.0753261 149 40 28
-0.516898 0.056119 -0.0759934 144 35 23
-0.516585 0.0583355 -0.0759621 97 25 10
-0.516272 0.0605533 -0.0759308 74 14 5
-0.515958 0.0627726 -0.0758995 63 22 10
-0.515645 0.0649933 -0.0758681 61 20 12
-0.516066 0.0675164 -0.0765378 62 17 13
-0.52309 0.0122646 -0.0796105 226 54 58
-0.522029 0.0142681 -0.0788713 232 54 56
-0.519487 0.0158725 -0.0767322 230 51 47
-0.518441 0.0178553 -0.0760048 230 49 47
-0.518133 0.0200347 -0.0759745 219 43 52
-0.517824 0.0222153 -0.0759442 210 41 56
-0.516783 0.0241856 -0.0752197 206 38 57
-0.515021 0.0259349 -0.0738096 196 37 49
-0.513991 0.0278887 -0.0730937 193 38 36
-0.513685 0.0300575 -0.0730636 187 37 31
-0.513377 0.0322277 -0.0730334 191 34 19
-0.51379 0.0346302 -0.0736888 189 35 34
-0.513482 0.0368076 -0.0736585 182 39 49
-0.513174 0.0389862 -0.0736282 168 38 45
-0.512865 0.0411663 -0.0735979 172 41 32
-0.513277 0.0435973 -0.0742557 169 37 32
-0.513691 0.0460394 -0.074916 160 35 40
-0.514106 0.0484927 -0.0755791 156 38 37
-0.514522 0.0509574 -0.0762447 148 38 35
-0.515673 0.0537059 -0.0776149 143 37 34
-0.516095 0.056199 -0.0782887 143 33 25
-0.516518 0.0587038 -0.0789653 101 27 19
-0.516203 0.0609308 -0.0789343 74 19 4
-0.515151 0.0628664 -0.0781961 69 16 8
-0.514836 0.0650918 -0.0781652 67 15 11
-0.516735 0.0682277 -0.0802644 62 16 13
-0.522305 0.0122532 -0.0819126 227 58 57
-0.521243 0.014261 -0.0811678 226 58 49
-0.517229 0.0154787 -0.0776073 222 55 49
-0.51692 0.0176567 -0.0775775 219 50 49
-0.516611 0.0198361 -0.0775478 211 45 48
-0.515572 0.0218099 -0.0768205 199 39 52
-0.514538 0.0237771 -0.0760963 193 40 48
-0.513507 0.0257379 -0.0753749 188 38 43
-0.51248 0.0276922 -0.0746564 191 35 34
-0.512172 0.0298611 -0.0746267 193 33 25
-0.511865 0.0320314 -0.0745971 185 37 33
-0.511557 0.034203 -0.0745674 178 33 39
-0.511966 0.036611 -0.0752263 175 32 32
-0.511657 0.0387898 -0.0751965 165 38 36
-0.511348 0.04097 -0.0751667 164 38 30
-0.511756 0.0434006 -0.0758281 165 34 29
-0.512166 0.0458424 -0.0764921 159 35 39
-0.513303 0.0485565 -0.0778583 151 31 39
-0.513718 0.0510264 -0.0785304 145 36 35
-0.514867 0.0537808 -0.0799132 142 39 31
-0.515287 0.0562793 -0.0805936 140 40 25
-0.51645 0.059075 -0.0819932 105 34 19
-0.516133 0.0613112 -0.0819626 71 18 16
-0.518803 0.06474 -0.084827 60 20 4
-0.519993 0.0676098 -0.0862615 61 24 1
-0.526404 0.011166 -0.0886433 209 65 61
-0.520767 0.0120518 -0.0835034 224 57 47
-0.518222 0.013675 -0.0813284 223 53 48
-0.516439 0.0154741 -0.0798833 220 45 47
-0.515399 0.017458 -0.0791505 214 42 50
-0.515089 0.0196375 -0.0791212 209 40 48
-0.514053 0.0216118 -0.0783914 198 39 50
-0.513021 0.0235796 -0.0776644 193 35 48
-0.511276 0.025328 -0.0762484 189 34 39
-0.510968 0.0274956 -0.0762192 189 33 36
-0.51066 0.0296646 -0.0761901 183 35 43
-0.510352 0.031835 -0.076161 172 37 49
-0.510044 0.0340067 -0.0761318 168 38 43
-0.509735 0.0361799 -0.0761026 168 32 31
-0.510139 0.0385934 -0.076765 165 35 30
-0.50983 0.0407737 -0.0767357 157 36 33
-0.50952 0.0429554 -0.0767064 154 34 34
-0.509924 0.0453915 -0.0773714 153 28 31
-0.511049 0.0480983 -0.0787389 148 28 36
-0.511458 0.0505624 -0.0794119 139 39 32
-0.514057 0.0538561 -0.0822211 135 40 25
-0.515214 0.0566405 -0.0836279 134 34 21
-0.515637 0.0591618 -0.0843206 109 32 17
-0.517556 0.0622827 -0.0864763 80 13 10
-0.526706 0.00910289 -0.0917805 176 46 54
-0.522552 0.0103947 -0.0880386 210 60 57
-0.519228 0.0118504 -0.0850943 215 54 50
-0.51743 0.0136666 -0.0836257 216 52 50
-0.514915 0.0152749 -0.0814592 211 50 48
-0.513877 0.0172593 -0.0807238 209 38 47
-0.512843 0.0192371 -0.0799912 205 36 49
-0.511813 0.0212083 -0.0792616 203 33 38
-0.510786 0.023173 -0.0785348 198 34 33
-0.509764 0.0251313 -0.077811 193 33 35
-0.508746 0.0270831 -0.07709 190 39 39
-0.508438 0.0292479 -0.0770615 195 37 40
-0.50813 0.031414 -0.0770328 182 34 52
-0.507822 0.0335816 -0.0770042 173 36 54
-0.506808 0.0355182 -0.0762862 176 36 27
-0.507205 0.0379208 -0.0769469 171 37 29
-0.507602 0.0403344 -0.0776102 161 36 36
-0.508001 0.0427591 -0.0782762 159 32 29
-0.507691 0.0449423 -0.0782473 157 37 24
-0.508091 0.0473839 -0.0789159 149 36 27
-0.509207 0.0501003 -0.0802901 137 35 27
-0.512512 0.053657 -0.0838185 131 29 31
-0.5144 0.0567221 -0.0859584 128 26 26
-0.525913 0.00908444 -0.0941556 198 55 49
-0.522519 0.0105677 -0.0911248 207 57 52
-0.519181 0.012028 -0.0881436 213 55 52
-0.516635 0.0136581 -0.0859325 213 49 52
-0.514119 0.0152699 -0.0837481 207 42 45
-0.511633 0.0168635 -0.0815902 211 33 24
-0.511324 0.0190388 -0.081562 205 33 35
-0.508869 0.0206031 -0.0794301 208 39 42
-0.508561 0.0227681 -0.079402 217 42 45
-0.507545 0.0247233 -0.0786784 225 47 45
-0.505831 0.0264584 -0.0772676 223 48 45
-0.50413 0.0281811 -0.0758681 219 38 48
-0.503132 0.0301104 -0.0751586 205 34 36
-0.503518 0.0324806 -0.0758123 178 36 36
-0.503211 0.0346325 -0.0757844 171 30 27
-0.504293 0.0372535 -0.0771276 163 31 29
-0.504683 0.0396563 -0.0777891 156 26 23
-0.505074 0.0420701 -0.0784533 154 34 23
-0.504764 0.0442447 -0.0784251 150 28 23
-0.504454 0.0464206 -0.0783968 143 27 32
-0.506256 0.0493779 -0.0804616 133 24 42
-0.513901 0.0545612 -0.0883277 127 38 41
-0.545273 0.0792718 -0.121025 58 15 18
-0.544923 0.0817287 -0.120993 67 14 8
-0.544572 0.0841872 -0.120961 64 14 15
-0.53223 0.010788 -0.103542 204 57 52
-0.523252 0.0109326 -0.0949921 206 57 53
-0.519133 0.0122071 -0.0912182 208 53 50
-0.515836 0.0136496 -0.0882489 206 45 46
-0.512591 0.0150702 -0.0853277 217 40 40
-0.510114 0.0166651 -0.0831607 227 43 36
-0.507667 0.0182423 -0.0810198 227 54 45
-0.507358 0.0204061 -0.0809922 228 55 48
-0.506344 0.0223648 -0.0802659 229 57 55
-0.504634 0.0241079 -0.0788494 226 53 52
-0.502938 0.0258386 -0.0774441 226 51 46
-0.501255 0.027557 -0.0760499 225 51 46
-0.500266 0.0294801 -0.0753433 211 53 47
-0.500644 0.0318399 -0.0759953 201 54 52
-0.500338 0.0339833 -0.075968 202 42 49
-0.500717 0.0363594 -0.0766225 180 32 26
-0.50041 0.0385098 -0.0765951 153 25 31
-0.50217 0.0413865 -0.0786292 148 29 21
-0.502554 0.0438004 -0.0792942 144 26 20
-0.50294 0.0462253 -0.0799618 138 21 30
-0.503328 0.0486613 -0.0806321 133 26 26
-0.544795 0.0769516 -0.123698 96 22 22
-0.543568 0.0790532 -0.122786 58 17 21
-0.543217 0.0815102 -0.122755 58 19 14
-0.542867 0.0839688 -0.122724 62 18 7
-0.542516 0.086429 -0.122692 63 20 5
-0.545979 0.0118362 -0.120135 227 58 51
-0.53143 0.0107726 -0.105999 203 58 55
-0.523221 0.0111095 -0.09814 205 57 54
-0.518332 0.0121954 -0.0935692 210 55 49
-0.514296 0.0134482 -0.0898411 223 53 50
-0.511063 0.0148705 -0.0869076 228 56 54
-0.507882 0.0162713 -0.0840211 226 55 53
-0.506156 0.0180452 -0.0825816 228 49 49
-0.505144 0.0200073 -0.0818527 220 47 47
-0.504136 0.021963 -0.0811266 218 45 54
-0.501747 0.0234973 -0.0790193 216 46 51
-0.500068 0.0252237 -0.0776194 212 49 50
-0.498403 0.0269379 -0.0762305 208 50 52
-0.498098 0.0290703 -0.0762038 214 41 51
-0.498471 0.0314247 -0.0768567 213 46 49
-0.498165 0.033564 -0.0768299 209 52 59
-0.498538 0.0359347 -0.0774854 200 50 46
-0.498231 0.038081 -0.0774585 188 38 38
-0.500662 0.0411917 -0.0801872 151 29 23
-0.501044 0.0436053 -0.0808558 135 22 27
-0.500733 0.0457772 -0.0808286 134 25 24
-0.50181 0.0484657 -0.0822009 131 17 18
-0.542214 0.076379 -0.124579 100 25 20
-0.541863 0.0788346 -0.124549 58 18 7
-0.541512 0.0812917 -0.124518 57 16 11
-0.54116 0.0837504 -0.124487 62 24 4
-0.540809 0.0862108 -0.124456 68 15 1
-0.536685 0.00981181 -0.114227 223 56 51
-0.529022 0.0103672 -0.106859 202 62 55
-0.522417 0.0110952 -0.10054 203 56 55
-0.516776 0.0119917 -0.0951776 216 51 48
-0.512755 0.0132467 -0.0914336 224 53 52
-0.508816 0.0144777 -0.0877653 220 49 51
-0.506366 0.0160732 -0.085589 211 45 48
-0.503945 0.017651 -0.0834387 204 41 46
-0.502938 0.0196101 -0.08271 199 47 37
-0.501936 0.0215628 -0.0819841 195 46 51
-0.498882 0.0228915 -0.0791882 195 45 47
-0.497221 0.0246136 -0.0777936 194 45 49
-0.496243 0.0265338 -0.0770873 193 43 49
-0.495269 0.0284478 -0.0763838 199 37 52
-0.495634 0.0307918 -0.077035 199 46 51
-0.496 0.0331464 -0.0776887 195 47 55
-0.496368 0.0355116 -0.078345 193 48 50
-0.496061 0.0376538 -0.0783187 191 43 40
-0.499155 0.0409968 -0.0817454 175 39 34
-0.498845 0.0431631 -0.0817188 142 36 21
-0.499222 0.0455821 -0.0823909 134 13 11
-0.500986 0.0485288 -0.0844771 135 24 17
-0.53572 0.0716543 -0.121122 139 21 17
-0.535373 0.0740758 -0.121092 97 22 5
-0.538432 0.0779039 -0.124546 66 17 4
-0.539806 0.0810732 -0.126281 61 16 13
-0.539454 0.083532 -0.126251 52 21 26
-0.539102 0.0859924 -0.12622 62 15 10
-0.533402 0.00920638 -0.114255 222 52 48
-0.526624 0.00996356 -0.107716 211 56 46
-0.520838 0.0108884 -0.102171 199 58 54
-0.51522 0.011788 -0.0967862 199 54 59
-0.511215 0.0130452 -0.0930263 197 47 54
-0.50729 0.0142783 -0.0893424 189 43 40
-0.504849 0.0158752 -0.0871571 179 39 36
-0.503134 0.0176509 -0.085706 173 43 47
-0.501433 0.0194138 -0.0842666 168 40 35
-0.499745 0.0211642 -0.0828385 165 37 18
-0.497391 0.0226974 -0.0807304 160 42 40
-0.495064 0.0242139 -0.0786471 169 35 44
-0.494091 0.0261312 -0.077941 175 40 45
-0.493787 0.0282554 -0.0779154 175 40 52
-0.493482 0.030381 -0.0778898 177 39 41
-0.494512 0.0329535 -0.0792274 174 40 39
-0.494876 0.0353185 -0.0798872 174 37 51
-0.494569 0.0374608 -0.0798614 177 39 40
-0.497647 0.040802 -0.0833039 176 38 27
-0.498021 0.043215 -0.0839797 160 39 31
-0.498397 0.0456391 -0.0846581 132 23 16
-0.501557 0.0491141 -0.0881976 125 7 20
-0.534385 0.0690181 -0.122889 144 15 3
-0.53153 0.070434 -0.120276 130 14 4
-0.533691 0.0738599 -0.122831 87 10 1
-0.533344 0.0762831 -0.122802 54 21 17
-0.536383 0.0801326 -0.126271 54 18 13
-0.536032 0.0825806 -0.126242 59 19 19
-0.529339 0.00841416 -0.11346 223 55 53
-0.521895 0.00899046 -0.106185 227 56 47
-0.518497 0.0104905 -0.103025 198 58 47
-0.513664 0.0115843 -0.0983951 181 42 48
-0.508949 0.0126528 -0.0938786 167 43 45
-0.505765 0.0140789 -0.0909197 158 37 40
-0.504035 0.0158713 -0.0894453 147 35 39
-0.501623 0.0174537 -0.0872686 135 30 35
-0.499927 0.0192175 -0.0858234 133 32 31
-0.497562 0.0207671 -0.0836897 137 32 13
-0.495225 0.0222997 -0.0815812 132 24 26
-0.492915 0.0238157 -0.0794975 137 24 20
-0.49261 0.0259387 -0.0794724 144 32 25
-0.491644 0.0278503 -0.0787665 149 37 34
-0.491339 0.0299719 -0.0787415 155 36 36
-0.493023 0.0327606 -0.0807662 159 39 36
-0.492716 0.0348974 -0.080741 159 36 35
-0.493076 0.0372677 -0.0814043 158 37 30
-0.496139 0.0406071 -0.0848626 160 37 21
-0.497194 0.0432671 -0.0862498 152 40 31
-0.498257 0.0459499 -0.0876481 137 39 27
-0.526111 0.066199 -0.11778 133 10 5
-0.52577 0.0685771 -0.117752 100 11 9
-0.527869 0.0719534 -0.120263 65 18 8
-0.529168 0.0750325 -0.121946 57 12 10
-0.531312 0.0784921 -0.124513 59 17 13
-0.530964 0.0809186 -0.124484 59 13 13
-0.528053 0.00589138 -0.11516 212 56 46
-0.524537 0.00744372 -0.111863 226 47 50
-0.519537 0.00859383 -0.107035 227 47 50
-0.516165 0.0100942 -0.103875 201 54 46
-0.512108 0.0113806 -0.100004 176 49 53
-0.507411 0.0124516 -0.0954685 147 41 38
-0.504239 0.0138795 -0.0924973 131 32 32
-0.502515 0.0156728 -0.0910171 127 30 34
-0.500111 0.0172564 -0.0888314 110 44 41
-0.499109 0.0192205 -0.088092 100 34 48
-0.496064 0.020572 -0.0852381 94 18 15
-0.493735 0.0221059 -0.0831209 97 17 19
-0.491434 0.0236231 -0.0810286 112 30 37
-0.491128 0.0257462 -0.081004 119 29 43
-0.490164 0.0276583 -0.0802956 126 24 34
-0.489859 0.02978 -0.0802711 132 26 30
-0.491534 0.0325677 -0.0823053 137 24 20
-0.491227 0.0347046 -0.0822806 131 27 36
-0.49225 0.0373072 -0.0836417 137 31 36
-0.49531 0.0406538 -0.0871297 140 28 22
-0.496364 0.0433194 -0.0885293 139 41 23
-0.498811 0.0465195 -0.0913878 138 36 26
-0.522395 0.0626737 -0.116998 141 23 28
-0.522056 0.065035 -0.11697 116 9 8
-0.524117 0.0683648 -0.119461 73 16 6
-0.524581 0.0710749 -0.120279 56 23 8
-0.524238 0.0734614 -0.120252 64 14 15
-0.525515 0.0765352 -0.121928 67 12 7
-0.531486 -0.000380169 -0.121098 82 18 4
-0.52952 0.00159315 -0.119386 90 27 29
-0.52757 0.00355099 -0.117689 185 49 32
-0.524051 0.00512526 -0.114364 219 46 47
-0.521368 0.0068598 -0.111901 217 42 49
-0.517188 0.00819887 -0.107882 215 45 45
-0.514593 0.00988817 -0.1055 203 46 45
-0.511289 0.0113669 -0.102379 179 45 56
-0.507314 0.0126313 -0.0985562 153 40 45
-0.503419 0.0138714 -0.0948103 140 21 16
-0.501695 0.0156685 -0.0933183 120 41 42
-0.49929 0.0172554 -0.0911149 116 44 54
-0.4976 0.0190238 -0.0896524 113 51 59
-0.495243 0.0205778 -0.0874927 110 48 40
-0.492246 0.021912 -0.0846608 113 48 26
-0.490612 0.023635 -0.0832494 116 46 41
-0.489647 0.0255537 -0.0825358 113 53 52
-0.489341 0.0276783 -0.0825117 122 48 22
-0.489692 0.0300212 -0.0831769 121 32 28
-0.490045 0.0323747 -0.0838447 123 14 31
-0.491063 0.0349669 -0.0852125 119 11 37
-0.49142 0.0373469 -0.0858882 125 18 33
-0.494478 0.0407006 -0.0894061 123 18 32
-0.496905 0.0438718 -0.0922664 125 25 27
-0.507262 0.0500163 -0.103486 127 25 17
-0.512898 0.0545275 -0.109748 124 19 16
-0.517946 0.0588951 -0.1154 142 38 15
-0.518391 0.0615398 -0.116198 145 30 25
-0.519623 0.0645099 -0.117832 94 17 15
-0.521663 0.0678292 -0.120323 54 5 1
-0.522121 0.0705323 -0.121142 61 18 11
-0.521778 0.0729137 -0.121115 65 6 1
-0.522236 0.0756369 -0.121938 60 20 0
-0.53168 -0.00742071 -0.123717 78 24 22
-0.531344 -0.00508892 -0.123691 89 22 18
-0.529373 -0.00309378 -0.121965 109 20 25
-0.52742 -0.00111435 -0.120254 132 29 15
-0.526283 0.00102526 -0.119391 155 41 29
-0.522774 0.00261971 -0.116052 209 53 33
-0.520099 0.00436882 -0.113579 218 48 45
-0.517457 0.00609732 -0.111137 210 45 51
-0.514095 0.00762041 -0.107937 199 46 43
-0.512273 0.00949387 -0.106344 193 39 33
-0.509728 0.0111627 -0.103992 170 41 50
-0.506491 0.0126204 -0.10091 157 37 33
-0.503305 0.0140558 -0.0978773 148 25 30
-0.500171 0.0154695 -0.0948937 138 19 18
-0.499857 0.01765 -0.0948694 133 27 27
-0.497462 0.0192266 -0.0926571 131 26 25
-0.495778 0.0209885 -0.091189 124 27 42
-0.492759 0.0223275 -0.0883115 124 29 39
-0.490448 0.0238526 -0.0861772 117 33 42
-0.48882 0.0255694 -0.0847604 112 29 41
-0.488513 0.0276983 -0.0847367 113 25 33
-0.488863 0.030046 -0.085408 111 21 39
-0.489877 0.0326277 -0.0867825 118 13 24
-0.490231 0.0350018 -0.0874619 120 10 27
-0.493277 0.0383308 -0.090996 120 7 23
-0.494323 0.0409913 -0.0924148 117 19 29
-0.498851 0.0449403 -0.0975334 117 14 31
-0.505686 0.049813 -0.105114 123 18 16
-0.511296 0.0543209 -0.111404 124 19 18
-0.510963 0.0566247 -0.111379 134 17 23
-0.515208 0.0607222 -0.11623 142 22 16
-0.517985 0.0642992 -0.119526 121 30 12
-0.51922 0.0672958 -0.121182 79 8 9
-0.519671 0.0699921 -0.122002 70 13 22
-0.520123 0.0727016 -0.122825 89 15 19
-0.519779 0.0750846 -0.122799 89 15 14
-0.519435 0.0774692 -0.122772 63 21 15
-0.518298 0.0795067 -0.121896 59 15 1
-0.517166 0.0815369 -0.121023 67 22 6
-0.516039 0.0835598 -0.120154 61 20 15
-0.514916 0.0855756 -0.119289 57 18 20
-0.530044 -0.00763675 -0.125409 168 37 29
-0.528079 -0.00563197 -0.123676 187 48 46
-0.526131 -0.00364298 -0.121958 203 51 48
-0.524996 -0.00149927 -0.121092 210 60 51
-0.522284 0.000288385 -0.118566 204 54 50
-0.519606 0.00205473 -0.116072 212 52 43
-0.516197 0.00362193 -0.112804 209 52 43
-0.514351 0.00552507 -0.111178 204 36 29
-0.511772 0.00722984 -0.108777 194 31 24
-0.510703 0.00928818 -0.107967 204 40 36
-0.508168 0.0109584 -0.105606 189 41 47
-0.505664 0.0126094 -0.103273 158 37 26
-0.504623 0.0146315 -0.102486 142 22 18
-0.501452 0.016052 -0.0994413 139 32 16
-0.498332 0.0174511 -0.0964456 150 24 16
-0.498017 0.0196331 -0.0964218 145 21 25
-0.495633 0.0211992 -0.0942007 139 14 27
-0.493955 0.0229548 -0.0927269 144 16 17
-0.49095 0.0242797 -0.0898377 133 23 29
-0.48931 0.0260052 -0.0883985 126 19 26
-0.489 0.0281467 -0.0883752 125 16 16
-0.488691 0.0302896 -0.0883518 123 19 18
-0.491715 0.0335624 -0.0918883 122 20 10
-0.492076 0.0359621 -0.0925851 124 11 25
-0.494484 0.0390927 -0.0954719 124 11 14
-0.49693 0.0422754 -0.0984057 124 6 17
-0.50155 0.0462917 -0.103674 118 17 24
-0.50411 0.0496097 -0.106743 118 12 27
-0.506713 0.0529847 -0.109863 121 21 24
-0.50936 0.0564182 -0.113036 129 15 14
-0.512816 0.0602117 -0.117084 140 25 8
-0.514789 0.0634664 -0.119545 141 29 23
-0.516788 0.0667648 -0.122037 139 30 19
-0.517231 0.0694541 -0.122858 153 37 18
-0.517677 0.0721567 -0.123682 168 41 31
-0.517333 0.0745347 -0.123656 164 46 43
-0.516989 0.0769142 -0.12363 156 40 36
-0.516645 0.0792953 -0.123604 103 26 20
-0.515516 0.0813261 -0.122728 72 12 13
-0.514392 0.0833496 -0.121856 60 14 14
-0.513272 0.0853659 -0.120988 62 17 7
-0.512929 0.0877377 -0.120962 62 18 4
-0.528744 -0.0101834 -0.127126 200 55 52
-0.526785 -0.00816892 -0.125386 210 51 46
-0.525644 -0.00600901 -0.12451 220 44 44
-0.524507 -0.00385695 -0.123637 226 41 46
-0.521792 -0.0020517 -0.121089 223 43 43
-0.51989 -9.6133e-05 -0.119401 220 53 45
-0.514937 0.00114774 -0.11447 208 51 47
-0.513851 0.00323623 -0.11364 196 41 48
-0.512017 0.00513715 -0.112015 180 35 44
-0.510199 0.00702363 -0.110403 207 32 43
-0.509134 0.00908251 -0.10959 221 48 51
-0.508072 0.0111343 -0.10878 212 47 43
-0.506285 0.0129846 -0.107195 181 35 44
-0.503792 0.0146247 -0.104854 153 22 16
-0.502754 0.0166442 -0.104064 131 28 11
-0.501009 0.0184536 -0.102517 143 35 22
-0.50069 0.0206625 -0.102493 146 30 23
-0.499664 0.0226615 -0.101713 148 37 28
-0.498642 0.0246538 -0.100936 152 25 25
-0.497624 0.0266394 -0.100162 143 25 21
-0.495917 0.0283972 -0.0986467 139 23 17
-0.495599 0.0305907 -0.0986233 134 18 12
-0.495282 0.0327857 -0.0985999 131 15 17
-0.494276 0.0347485 -0.0978352 125 22 27
-0.493958 0.0369419 -0.0978118 123 11 36
-0.496405 0.0401122 -0.100771 118 14 33
-0.500312 0.0438472 -0.105313 116 12 24
-0.500702 0.0463517 -0.106061 114 14 23
-0.50326 0.0496773 -0.109157 125 14 19
-0.505124 0.0527798 -0.111506 119 14 24
-0.507011 0.0559231 -0.113885 128 6 7
-0.509676 0.0594049 -0.117113 141 27 1
-0.51162 0.0626407 -0.119564 145 25 32
-0.514365 0.066236 -0.122889 153 29 26
-0.514802 0.0689185 -0.12371 166 37 29
-0.515241 0.0716142 -0.124535 174 40 43
-0.515681 0.0743231 -0.125363 178 37 24
-0.515337 0.0767027 -0.125338 170 38 26
-0.514992 0.0790839 -0.125313 135 34 24
-0.513866 0.0811152 -0.124434 87 14 18
-0.512744 0.0831393 -0.123558 62 22 13
-0.512401 0.0855148 -0.123533 64 28 8
-0.511284 0.0875281 -0.122662 63 15 9
-0.510941 0.0899016 -0.122636 57 19 16
-0.526298 -0.0105525 -0.127955 194 43 34
-0.525155 -0.0083841 -0.127072 202 36 27
-0.524017 -0.00622362 -0.126192 214 42 39
-0.522884 -0.00407099 -0.125316 216 42 49
-0.520178 -0.00226422 -0.122758 217 49 54
-0.518283 -0.000307674 -0.121063 209 53 48
-0.513349 0.000938979 -0.116111 192 42 42
-0.511514 0.00285217 -0.114473 186 32 36
-0.510439 0.0049299 -0.113647 191 31 36
-0.508627 0.00681739 -0.112029 214 48 49
-0.508301 0.00906376 -0.112005 220 42 49
-0.507239 0.0111199 -0.11119 204 39 51
-0.505451 0.0129743 -0.109592 180 33 44
-0.5044 0.0150125 -0.108786 162 32 27
-0.504077 0.017246 -0.108763 135 23 24
-0.503031 0.019274 -0.10796 135 27 32
-0.502707 0.0215058 -0.107937 142 33 23
-0.502384 0.023739 -0.107914 147 34 31
-0.50206 0.0259736 -0.10789 144 26 24
-0.501736 0.0282096 -0.107867 143 35 19
-0.501412 0.0304471 -0.107844 132 24 31
-0.501087 0.032686 -0.10782 130 25 21
-0.500048 0.034688 -0.107021 123 22 19
-0.499013 0.0366833 -0.106226 124 19 18
-0.49869 0.0389173 -0.106202 125 15 18
-0.499075 0.0414038 -0.106951 114 16 16
-0.499462 0.043902 -0.107703 105 12 20
-0.49985 0.046412 -0.108458 115 11 22
-0.50168 0.0494735 -0.110789 126 19 15
-0.502803 0.0522963 -0.112351 133 21 24
-0.503936 0.0551443 -0.113927 126 7 12
-0.505818 0.0583107 -0.116327 128 15 12
-0.508478 0.0618219 -0.119583 137 20 25
-0.511953 0.0657094 -0.123737 151 25 22
-0.512383 0.0683851 -0.124559 162 28 30
-0.512815 0.0710739 -0.125385 165 36 32
-0.513248 0.0737759 -0.126214 161 30 35
-0.512904 0.0761505 -0.126189 154 34 22
-0.51256 0.0785266 -0.126164 131 24 14
-0.511441 0.0805549 -0.125286 85 16 12
-0.511097 0.082929 -0.125261 63 14 13
-0.509983 0.0849465 -0.124386 58 21 3
-0.509639 0.0873185 -0.124362 56 21 4
-0.509295 0.089692 -0.124337 60 22 4
-0.524665 -0.0107682 -0.129644 174 36 28
-0.523525 -0.00859927 -0.128757 174 37 19
-0.523188 -0.00627715 -0.128733 175 35 27
-0.52126 -0.00428502 -0.126995 178 38 37
-0.518564 -0.00247681 -0.124427 182 34 44
-0.516675 -0.000519215 -0.122726 186 37 29
-0.511009 0.000558792 -0.116941 170 39 33
-0.509932 0.00264439 -0.116108 178 35 26
-0.50886 0.00472266 -0.11528 200 49 45
-0.507054 0.00661111 -0.113655 211 50 44
-0.506728 0.00885758 -0.113632 209 47 47
-0.505668 0.0109143 -0.112814 185 36 53
-0.504613 0.0129639 -0.111998 172 36 29
-0.503561 0.0150064 -0.111187 166 25 14
-0.503236 0.0172447 -0.111164 138 12 21
-0.502911 0.0194843 -0.111141 126 9 26
-0.502586 0.0217254 -0.111118 132 27 36
-0.50226 0.023968 -0.111095 129 33 39
-0.501935 0.0262119 -0.111072 138 27 39
-0.501609 0.0284573 -0.111049 140 24 13
-0.501283 0.0307042 -0.111026 128 23 23
-0.500956 0.0329524 -0.111003 120 29 25
-0.499199 0.0347235 -0.109413 118 22 20
-0.498874 0.0369654 -0.10939 119 17 15
-0.498548 0.0392087 -0.109367 112 5 19
-0.498222 0.0414535 -0.109344 113 2 12
-0.498607 0.043957 -0.110103 117 7 12
-0.498994 0.0464724 -0.110865 119 5 17
-0.500101 0.0492697 -0.112422 127 24 28
-0.500492 0.0518148 -0.113194 139 15 23
-0.501612 0.0546549 -0.11477 124 18 10
-0.502741 0.0575203 -0.116359 127 9 4
-0.505363 0.06101 -0.119602 140 2 10
-0.509551 0.0651851 -0.124582 147 13 11
-0.509974 0.067854 -0.125405 148 26 20
-0.510399 0.070536 -0.126231 148 25 21
-0.510826 0.0732311 -0.127061 150 22 13
-0.510482 0.0756007 -0.127036 142 27 10
-0.510138 0.0779718 -0.127012 110 24 17
-0.509794 0.0803445 -0.126988 73 17 9
-0.508682 0.0823661 -0.12611 61 24 8
-0.508338 0.0847367 -0.126086 57 20 3
-0.507994 0.0871088 -0.126062 58 14 5
-0.507649 0.0894825 -0.126038 53 14 15
-0.522694 -0.00865822 -0.131309 143 25 15
-0.521558 -0.00649225 -0.130419 146 34 16
-0.519636 -0.00449913 -0.128674 153 37 16
-0.51695 -0.00268939 -0.126096 154 34 37
-0.514299 -0.000901324 -0.123551 158 33 27
-0.509424 0.000350398 -0.118579 153 27 29
-0.507608 0.00226226 -0.116935 193 42 33
-0.506542 0.00433713 -0.116107 207 54 49
-0.505481 0.00640477 -0.115282 209 48 39
-0.505154 0.00865138 -0.115259 194 42 28
-0.504827 0.0108994 -0.115237 177 33 28
-0.503771 0.0129534 -0.114415 166 25 13
-0.502718 0.0150003 -0.113597 156 19 21
-0.502392 0.0172433 -0.113575 135 15 28
-0.502066 0.0194877 -0.113553 126 5 23
-0.50174 0.0217336 -0.11353 141 26 24
-0.501413 0.0239808 -0.113508 134 20 18
-0.501086 0.0262296 -0.113485 132 33 32
-0.500759 0.0284798 -0.113463 120 26 33
-0.500431 0.0307314 -0.11344 119 19 12
-0.499387 0.0327487 -0.112626 120 19 13
-0.49906 0.0349985 -0.112604 117 17 18
-0.498732 0.0372498 -0.112581 114 2 10
-0.497692 0.0392538 -0.11177 112 0 11
-0.497365 0.0415033 -0.111748 116 14 22
-0.497038 0.0437542 -0.111725 125 5 10
-0.498134 0.0465331 -0.113283 119 7 13
-0.498521 0.0490658 -0.114055 122 3 27
-0.498909 0.0516106 -0.114831 135 17 25
-0.500021 0.0544499 -0.116414 129 23 19
-0.501143 0.0573146 -0.118011 127 1 9
-0.503751 0.0608028 -0.121268 132 10 7
-0.506403 0.064352 -0.124581 136 16 15
-0.507575 0.0673252 -0.126247 136 15 22
-0.508758 0.0703255 -0.127928 135 17 16
-0.508414 0.0726886 -0.127904 133 18 18
-0.50807 0.0750532 -0.12788 125 9 10
-0.507726 0.0774193 -0.127857 89 14 13
-0.507382 0.079787 -0.127833 61 18 13
-0.507038 0.0821562 -0.12781 54 20 8
-0.506693 0.0845269 -0.127786 55 18 2
-0.506348 0.0868991 -0.127762 57 21 4
-0.52106 -0.00887393 -0.132999 110 15 9
-0.519136 -0.0068676 -0.131239 118 15 17
-0.517228 -0.00487704 -0.129495 128 14 18
-0.515336 -0.00290205 -0.127766 129 15 23
-0.512694 -0.00111248 -0.12521 123 26 35
-0.507839 0.000142007 -0.120218 123 26 31
-0.506029 0.00205484 -0.118567 195 46 41
-0.504966 0.00413026 -0.117736 205 39 45
-0.503907 0.00619842 -0.116909 189 39 43
-0.50358 0.00844514 -0.116887 174 36 34
-0.503253 0.0106933 -0.116865 162 30 24
-0.502199 0.0127478 -0.11604 151 23 17
-0.501872 0.0149941 -0.116019 145 19 31
-0.501545 0.0172419 -0.115997 134 20 22
-0.501217 0.0194911 -0.115975 132 1 10
-0.500889 0.0217417 -0.115953 153 32 24
-0.500562 0.0239938 -0.115931 148 17 27
-0.500233 0.0262473 -0.115909 134 11 28
-0.499905 0.0285022 -0.115887 126 9 18
-0.499577 0.0307586 -0.115865 123 7 20
-0.498531 0.0327802 -0.115044 122 7 16
-0.498202 0.0350348 -0.115022 122 11 16
-0.497161 0.0370462 -0.114205 113 5 23
-0.496833 0.0392991 -0.114183 117 0 11
-0.495797 0.0413004 -0.113369 118 13 32
-0.495469 0.0435514 -0.113347 127 8 17
-0.496558 0.0463295 -0.114912 122 6 17
-0.496941 0.048862 -0.115688 122 12 9
-0.497325 0.0514064 -0.116468 131 21 18
-0.49843 0.054245 -0.118059 136 18 15
-0.499544 0.0571089 -0.119663 121 1 7
-0.501401 0.0602964 -0.122106 120 3 11
-0.504028 0.0638338 -0.12542 123 3 20
-0.505187 0.0667985 -0.127086 127 10 18
-0.506356 0.0697903 -0.128767 129 9 13
-0.506772 0.0724782 -0.129602 117 6 12
-0.506427 0.0748429 -0.129579 94 6 15
-0.506083 0.0772091 -0.129555 66 10 5
-0.505738 0.0795769 -0.129532 59 15 1
-0.505393 0.0819462 -0.129509 54 19 3
-0.505048 0.0843171 -0.129486 53 22 11
-0.516724 -0.00724132 -0.132056 61 0 14
-0.51483 -0.00525332 -0.130313 65 0 6
-0.513721 -0.0031147 -0.129435 71 0 0
-0.511089 -0.00132371 -0.12687 66 0 22
-0.506254 -6.64162e-05 -0.121857 85 0 30
-0.505185 0.0020208 -0.121016 183 49 38
-0.504121 0.0041007 -0.120179 202 42 19
-0.503061 0.00617339 -0.119345 182 39 39
-0.502006 0.00823887 -0.118514 165 33 38
-0.501678 0.0104871 -0.118493 154 19 20
-0.50135 0.0127367 -0.118471 149 30 8
-0.501022 0.0149879 -0.11845 142 22 16
-0.500693 0.0172404 -0.118429 129 10 10
-0.500364 0.0194944 -0.118407 135 0 5
-0.500036 0.0217498 -0.118386 158 34 21
-0.499706 0.0240067 -0.118364 152 25 21
-0.499377 0.026265 -0.118343 140 14 20
-0.499047 0.0285248 -0.118321 133 13 20
-0.498718 0.030786 -0.1183 138 10 7
-0.497671 0.0328118 -0.117473 138 18 6
-0.496628 0.0348307 -0.116649 131 10 19
-0.496299 0.0370869 -0.116628 129 11 13
-0.495261 0.0390955 -0.115808 118 4 14
-0.494933 0.0413499 -0.115786 121 16 25
-0.494604 0.0436058 -0.115765 132 11 4
-0.494981 0.0461259 -0.116542 123 7 27
-0.49536 0.0486581 -0.117322 127 6 15
-0.49574 0.0512022 -0.118105 128 24 24
-0.496122 0.0537584 -0.118892 132 20 22
-0.497224 0.0566144 -0.120497 107 7 10
-0.499062 0.0597921 -0.122941 104 7 4
-0.501662 0.0633178 -0.126255 112 3 9
-0.502808 0.0662741 -0.127922 112 14 17
-0.503964 0.0692573 -0.129603 98 14 12
-0.504373 0.0719384 -0.130438 70 2 3
-0.504784 0.0746326 -0.131277 49 2 2
-0.504439 0.0769989 -0.131254 45 9 11
-0.504094 0.0793668 -0.131232 55 20 8
-0.503748 0.0817362 -0.131209 56 21 4
-0.5151 -0.00745563 -0.133736 37 0 0
-0.513212 -0.00546661 -0.131986 37 1 0
-0.512106 -0.00332742 -0.131105 38 0 0
-0.509484 -0.00153493 -0.12853 39 4 0
-0.505407 -0.000105236 -0.124323 93 0 19
-0.504338 0.00198655 -0.123476 182 45 49
-0.503273 0.00407102 -0.122632 194 41 33
-0.502212 0.0061482 -0.121792 167 35 37
-0.501155 0.00821816 -0.120955 152 31 35
-0.500826 0.0104712 -0.120934 148 17 22
-0.499774 0.0125307 -0.1201 143 27 22
-0.499446 0.0147819 -0.120079 141 12 11
-0.499117 0.0170345 -0.120058 126 6 6
-0.498787 0.0192886 -0.120038 136 0 0
-0.498458 0.0215442 -0.120017 161 37 24
-0.498128 0.0238012 -0.119996 158 29 23
-0.497798 0.0260596 -0.119975 141 22 21
-0.497468 0.0283195 -0.119954 142 14 22
-0.497138 0.0305807 -0.119933 142 7 21
-0.496808 0.0328435 -0.119912 140 9 16
-0.495764 0.0348666 -0.119082 138 12 24
-0.494725 0.0368828 -0.118256 140 12 1
-0.494395 0.0391405 -0.118235 120 10 8
-0.49336 0.0411465 -0.117412 128 10 11
-0.493735 0.0436603 -0.118193 130 16 17
-0.494111 0.0461859 -0.118977 128 10 15
-0.493779 0.0484541 -0.118956 130 14 8
-0.494156 0.050998 -0.119743 130 14 20
-0.494534 0.0535538 -0.120534 130 25 24
-0.495628 0.0564091 -0.122146 91 5 7
-0.496732 0.0592899 -0.123772 70 4 0
-0.499306 0.062804 -0.127087 66 0 5
-0.500439 0.0657519 -0.128754 62 0 6
-0.501581 0.0687266 -0.130436 47 0 3
-0.502733 0.0717283 -0.132133 28 0 8
-0.502389 0.0740882 -0.132111 30 4 11
-0.502795 0.0767887 -0.132953 43 13 10
-0.502449 0.0791567 -0.132931 46 17 12
-0.512701 -0.00782735 -0.134546 43 5 3
-0.511594 -0.00567989 -0.133659 40 3 2
-0.51049 -0.00354014 -0.132776 43 5 3
-0.507878 -0.00174618 -0.13019 99 0 6
-0.503818 -0.000314162 -0.125967 178 31 17
-0.503486 0.00195216 -0.125946 207 44 49
-0.50242 0.00404118 -0.125096 189 45 43
-0.501359 0.00612289 -0.124249 164 32 35
-0.500301 0.00819729 -0.123406 150 29 31
-0.499248 0.0102645 -0.122566 142 25 18
-0.498918 0.0125191 -0.122545 129 20 21
-0.497869 0.0145759 -0.121709 127 17 10
-0.49754 0.0168286 -0.121689 115 9 6
-0.49721 0.0190829 -0.121668 124 10 13
-0.497597 0.0215518 -0.122463 154 36 36
-0.497266 0.0238136 -0.122443 158 35 36
-0.496935 0.0260769 -0.122423 148 23 15
-0.496603 0.0283416 -0.122402 147 11 16
-0.496272 0.0306078 -0.122381 145 18 13
-0.495227 0.0326384 -0.121545 132 17 22
-0.494896 0.0349027 -0.121525 136 22 21
-0.493856 0.0369231 -0.120692 136 18 5
-0.492819 0.0389365 -0.119863 113 17 20
-0.492489 0.0411958 -0.119843 122 11 22
-0.492158 0.0434565 -0.119822 127 11 27
-0.49253 0.0459818 -0.12061 128 11 27
-0.492904 0.0485192 -0.121402 129 13 19
-0.492571 0.0507937 -0.121381 128 10 12
-0.492945 0.0533493 -0.122176 127 31 25
-0.494032 0.0562038 -0.123795 69 4 14
-0.494411 0.0587898 -0.1246 27 1 2
-0.496234 0.0619897 -0.127076 30 1 2
-0.49808 0.0652319 -0.129583 28 6 1
-0.498472 0.0678802 -0.130412 29 9 0
-0.499606 0.0708656 -0.132102 33 10 0
-0.500749 0.0738783 -0.133806 42 2 0
-0.500403 0.0762398 -0.133785 49 12 2
-0.500804 0.0789465 -0.134631 46 17 12
-0.509212 -0.00605379 -0.134466 63 12 6
-0.508116 -0.0039177 -0.133584 129 11 12
-0.507024 -0.00178926 -0.132705 192 39 32
-0.502964 -0.000353621 -0.128447 218 47 48
-0.501897 0.00174331 -0.12759 212 43 49
-0.501564 0.00401119 -0.12757 186 34 35
-0.500502 0.00609743 -0.126717 155 35 31
-0.499443 0.00817635 -0.125867 145 37 20
-0.498389 0.010248 -0.125021 138 17 12
-0.497339 0.0123125 -0.124178 128 16 13
-0.497008 0.0145687 -0.124158 114 4 23
-0.496677 0.0168262 -0.124138 92 0 16
-0.496346 0.0190852 -0.124118 100 9 9
-0.496015 0.0213457 -0.124098 148 37 26
-0.495684 0.0236076 -0.124078 163 37 28
-0.495352 0.0258709 -0.124058 154 32 18
-0.49502 0.0281358 -0.124038 147 25 15
-0.494688 0.030402 -0.124018 146 29 12
-0.493646 0.0324332 -0.12318 129 22 22
-0.493315 0.0346976 -0.12316 135 23 14
-0.492983 0.0369635 -0.12314 139 17 8
-0.491946 0.0389812 -0.122304 110 1 24
-0.490913 0.0409919 -0.121472 120 1 20
-0.491282 0.0435108 -0.122264 127 11 21
-0.49095 0.0457778 -0.122244 135 16 17
-0.491319 0.0483147 -0.123039 134 17 6
-0.490986 0.0505894 -0.123019 136 7 1
-0.491356 0.0531446 -0.123818 140 24 8
-0.492436 0.0559984 -0.125445 86 15 12
-0.492811 0.0585841 -0.126253 28 5 10
-0.493188 0.0611821 -0.127065 27 4 3
-0.494284 0.0640985 -0.12872 34 1 0
-0.496117 0.0673558 -0.131239 36 6 0
-0.497237 0.0703327 -0.132929 40 10 0
-0.498367 0.0733367 -0.134633 48 5 0
-0.498762 0.0760299 -0.135481 57 12 0
-0.499159 0.0787363 -0.136332 53 18 6
-0.506841 -0.00642608 -0.135271 165 34 13
-0.505751 -0.00429365 -0.134389 194 49 42
-0.505415 -0.00200103 -0.134369 213 44 47
-0.503586 -5.16033e-05 -0.132636 213 51 46
-0.501038 0.00170826 -0.130074 199 39 41
-0.499974 0.0038024 -0.129215 187 32 27
-0.499641 0.00607184 -0.129195 167 31 23
-0.497858 0.00796865 -0.127506 152 26 10
-0.497526 0.0102315 -0.127486 139 21 13
-0.496475 0.0123004 -0.126637 126 13 18
-0.495428 0.0143621 -0.125792 107 10 19
-0.495097 0.0166198 -0.125772 63 0 7
-0.494765 0.018879 -0.125753 56 0 12
-0.495147 0.0213529 -0.126559 141 31 22
-0.494814 0.0236197 -0.12654 163 37 34
-0.494481 0.0258878 -0.12652 158 29 20
-0.493437 0.0279299 -0.125675 149 24 23
-0.493105 0.0301963 -0.125656 145 20 10
-0.492065 0.032228 -0.124814 127 18 29
-0.491733 0.0344925 -0.124794 135 26 12
-0.4914 0.0367585 -0.124775 141 20 9
-0.490366 0.0387767 -0.123937 114 1 10
-0.490034 0.0410409 -0.123917 118 8 17
-0.489702 0.0433065 -0.123898 130 11 11
-0.489369 0.0455736 -0.123878 137 23 11
-0.489735 0.0481103 -0.124677 144 16 4
-0.489401 0.050385 -0.124658 140 18 10
-0.489767 0.05294 -0.12546 146 25 21
-0.490135 0.0555071 -0.126266 124 22 25
-0.490504 0.0580865 -0.127075 67 4 6
-0.490874 0.0606781 -0.127888 36 9 0
-0.491245 0.0632822 -0.128703 42 7 2
-0.492333 0.066209 -0.130365 43 14 12
-0.493429 0.0691622 -0.132042 45 12 7
-0.495263 0.072469 -0.134593 59 13 5
-0.496383 0.0754838 -0.136305 64 11 2
-0.504479 -0.00679686 -0.136072 201 49 33
-0.504142 -0.00450556 -0.136053 205 43 42
-0.503805 -0.00221287 -0.136034 198 40 39
-0.502724 -9.09017e-05 -0.135153 186 37 41
-0.501647 0.00202348 -0.134275 184 35 26
-0.49911 0.00377177 -0.131703 172 33 31
-0.498049 0.00586313 -0.130841 157 29 16
-0.496993 0.00794714 -0.129981 144 30 19
-0.49594 0.0100238 -0.129126 134 19 14
-0.495607 0.0122882 -0.129107 120 10 11
-0.49456 0.0143544 -0.128255 83 7 10
-0.494227 0.0166169 -0.128236 33 1 0
-0.493894 0.0188809 -0.128217 30 1 1
-0.493561 0.0211463 -0.128198 120 15 7
-0.493228 0.0234131 -0.128179 151 42 36
-0.492895 0.0256814 -0.12816 148 36 30
-0.491854 0.027724 -0.127312 144 18 24
-0.491521 0.0299905 -0.127293 139 15 25
-0.490484 0.0320227 -0.126448 128 19 36
-0.490151 0.0342874 -0.126429 146 18 0
-0.489818 0.0365535 -0.12641 133 12 13
-0.488787 0.0385722 -0.125569 103 0 4
-0.488454 0.0408365 -0.12555 115 11 15
-0.488121 0.0431022 -0.125531 131 3 5
-0.487788 0.0453694 -0.125513 141 10 3
-0.48815 0.0479058 -0.126316 144 12 11
-0.487815 0.0501806 -0.126297 146 22 13
-0.488178 0.0527353 -0.127103 152 22 14
-0.487842 0.0550178 -0.127084 148 36 23
-0.488205 0.0575908 -0.127893 106 22 13
-0.488569 0.0601762 -0.128706 58 5 4
-0.488935 0.0627738 -0.129523 42 13 2
-0.489301 0.0653839 -0.130343 46 16 11
-0.489669 0.0680064 -0.131166 49 17 18
-0.50287 -0.00700891 -0.137736 204 46 31
-0.502533 -0.00471755 -0.137717 194 43 34
-0.502195 -0.00242471 -0.137698 176 34 36
-0.501858 -0.000130407 -0.13768 171 33 40
-0.50078 0.00198867 -0.136796 167 34 22
-0.499706 0.00410021 -0.135915 156 23 19
-0.497181 0.00583692 -0.133334 144 14 16
-0.496123 0.00792548 -0.132468 134 21 18
-0.49507 0.0100067 -0.131606 125 12 11
-0.494021 0.0120807 -0.130747 101 13 9
-0.493687 0.0143466 -0.130729 36 14 6
-0.492643 0.01641 -0.129874 21 7 7
-0.49231 0.0186741 -0.129856 22 1 9
-0.492685 0.021153 -0.130674 81 4 12
-0.492351 0.0234247 -0.130655 141 37 28
-0.491308 0.025475 -0.1298 153 37 20
-0.490974 0.0277448 -0.129782 144 23 25
-0.489936 0.0297847 -0.128931 145 20 22
-0.488903 0.0318174 -0.128083 149 19 21
-0.488569 0.0340822 -0.128065 150 16 18
-0.488236 0.0363484 -0.128046 146 13 12
-0.487207 0.0383677 -0.127202 117 6 6
-0.486874 0.0406321 -0.127184 108 1 8
-0.48654 0.0428979 -0.127166 122 3 13
-0.486206 0.0451652 -0.127147 137 14 13
-0.486565 0.0477013 -0.127954 144 18 7
-0.48623 0.0499762 -0.127936 149 15 14
-0.485895 0.0522526 -0.127917 152 27 14
-0.486252 0.0548132 -0.128727 151 29 29
-0.485916 0.0570973 -0.128709 139 33 24
-0.486971 0.0599709 -0.130358 91 17 15
-0.486633 0.0622675 -0.130339 55 15 5
-0.486994 0.0648712 -0.13116 50 15 7
-0.487356 0.0674873 -0.131983 56 17 8
-0.489847 0.0710776 -0.135371 62 16 10
-0.501261 -0.00722099 -0.139399 180 37 35
-0.500923 -0.00492952 -0.139381 169 35 28
-0.500585 -0.00263658 -0.139363 159 36 10
-0.500247 -0.000342171 -0.139345 156 32 12
-0.499172 0.00177746 -0.138458 149 25 13
-0.498834 0.00406989 -0.13844 139 27 5
-0.497763 0.00617862 -0.137557 129 16 6
-0.49525 0.0079037 -0.134965 116 15 22
-0.49348 0.00979859 -0.133249 98 9 18
-0.492434 0.0118731 -0.132388 60 1 12
-0.4921 0.0141391 -0.13237 18 2 5
-0.491766 0.0164066 -0.132352 16 0 15
-0.491431 0.0186755 -0.132334 21 2 12
-0.490426 0.025491 -0.13228 160 39 25
-0.489387 0.0275385 -0.131423 160 31 28
-0.488352 0.0295788 -0.130569 163 30 22
-0.487321 0.0316121 -0.129718 166 31 21
-0.486987 0.033877 -0.1297 163 29 19
-0.486653 0.0361433 -0.129682 162 33 18
-0.485627 0.0381631 -0.128836 151 28 17
-0.485293 0.0404276 -0.128818 106 14 16
-0.484959 0.0426936 -0.1288 106 1 17
-0.484625 0.044961 -0.128782 127 1 25
-0.484979 0.0474967 -0.129593 138 8 28
-0.484644 0.0497718 -0.129575 144 20 26
-0.484308 0.0520483 -0.129557 152 28 21
-0.483972 0.0543263 -0.129539 150 32 35
-0.484325 0.0568928 -0.130353 147 37 27
-0.484679 0.0594714 -0.13117 117 28 23
-0.485035 0.0620624 -0.131991 82 12 5
-0.484696 0.0643606 -0.131973 53 18 7
-0.485051 0.0669702 -0.132798 51 18 8
-0.500794 -0.00481723 -0.142802 143 20 10
-0.501198 -0.00234622 -0.143669 137 16 10
-0.500857 -3.69699e-05 -0.143651 134 11 12
-0.498297 0.00174198 -0.140993 123 17 16
-0.497958 0.00403941 -0.140976 111 16 21
-0.496886 0.0061528 -0.140085 100 8 2
-0.495819 0.00825863 -0.139199 82 0 7
-0.49189 0.00959043 -0.134893 47 0 4
-0.491555 0.0118599 -0.134876 21 0 11
-0.490512 0.0139316 -0.134012 15 7 0
-0.490177 0.0161992 -0.133994 12 0 7
-0.4878 0.027332 -0.133064 166 35 37
-0.486767 0.0293729 -0.132207 170 37 32
-0.485739 0.0314068 -0.131354 173 31 24
-0.485405 0.0336718 -0.131336 175 31 20
-0.48507 0.0359382 -0.131319 168 34 30
-0.484047 0.0379585 -0.130469 166 34 32
-0.483712 0.0402231 -0.130452 149 29 17
-0.483378 0.0424892 -0.130434 101 13 19
-0.483043 0.0447568 -0.130417 103 7 18
-0.482708 0.0470257 -0.1304 130 9 27
-0.483057 0.0495674 -0.131214 146 20 23
-0.482721 0.051844 -0.131197 151 29 22
-0.482385 0.0541221 -0.131179 151 27 20
-0.482048 0.0564016 -0.131162 147 31 20
-0.482396 0.058974 -0.13198 137 31 17
-0.482746 0.0615586 -0.132801 89 11 9
-0.482407 0.0638521 -0.132784 57 22 17
-0.482757 0.0664553 -0.133609 57 23 3
-0.501068 -0.00222203 -0.147131 82 0 15
-0.499979 -7.67915e-05 -0.146219 75 0 19
-0.498894 0.00206071 -0.14531 68 1 1
-0.496346 0.00382778 -0.142643 61 1 1
-0.495277 0.00594173 -0.14175 40 0 14
-0.494938 0.00823731 -0.141732 31 3 7
-0.491721 0.00976303 -0.138249 25 2 3
-0.489965 0.0116518 -0.13652 21 9 6
-0.489629 0.0139228 -0.136503 20 5 8
-0.486212 0.0271256 -0.134705 149 36 27
-0.485182 0.029167 -0.133845 169 31 25
-0.484157 0.0312014 -0.132989 172 33 20
-0.483822 0.0334665 -0.132972 177 32 10
-0.483487 0.035733 -0.132955 174 30 13
-0.482466 0.0377539 -0.132103 172 33 30
-0.482131 0.0400186 -0.132086 162 32 21
-0.481796 0.0422848 -0.132069 127 26 37
-0.481461 0.0445524 -0.132052 87 1 12
-0.481125 0.0468215 -0.132035 111 6 17
-0.481471 0.0493628 -0.132854 138 15 15
-0.481134 0.0516396 -0.132837 148 37 17
-0.480797 0.0539178 -0.13282 142 29 23
-0.48046 0.0561975 -0.132803 140 27 22
-0.480123 0.0584786 -0.132786 136 30 17
-0.480466 0.0610569 -0.133608 88 17 9
-0.480811 0.0636474 -0.134434 55 13 3
-0.480471 0.0659425 -0.134417 51 16 8
-0.482574 0.030996 -0.134625 165 34 16
-0.482239 0.0332612 -0.134609 166 37 26
-0.481221 0.0352859 -0.133753 167 34 34
-0.480885 0.0375492 -0.133737 168 34 31
-0.479872 0.0395637 -0.132885 160 28 22
-0.479537 0.0418253 -0.132869 134 17 28
-0.479202 0.0440883 -0.132852 74 1 12
-0.479542 0.0466173 -0.133671 56 7 8
-0.479206 0.048888 -0.133655 96 9 28
-0.479547 0.0514352 -0.134478 126 23 24
-0.47921 0.0537135 -0.134461 132 25 18
-0.478872 0.0559933 -0.134445 126 19 23
-0.478534 0.0582745 -0.134428 117 20 14
-0.478196 0.0605572 -0.134412 81 15 13
-0.478534 0.0631414 -0.135238 54 14 12
-0.480656 0.0330559 -0.136245 147 31 18
-0.47964 0.0350811 -0.135387 151 39 35
-0.478629 0.0370993 -0.134532 148 34 34
-0.478294 0.0393596 -0.134516 138 32 35
-0.477958 0.0416213 -0.1345 107 24 22
-0.477622 0.0438844 -0.134485 44 1 13
-0.477286 0.046149 -0.134469 19 10 7
-0.477622 0.0486838 -0.135292 40 1 25
-0.47796 0.0512307 -0.136119 69 2 22
-0.477622 0.0535092 -0.136103 83 2 8
-0.477283 0.055789 -0.136087 82 3 3
-0.476945 0.0580704 -0.136071 72 11 6
-0.476606 0.0603532 -0.136055 58 14 8
-0.477617 0.063238 -0.137734 48 17 17
-0.47806 0.0348763 -0.137021 107 18 22
-0.477051 0.036895 -0.136163 111 18 15
-0.476046 0.0389069 -0.135309 96 7 15
-0.475711 0.041164 -0.135294 60 4 10
-0.475375 0.0434226 -0.135278 36 0 3
-0.475706 0.0459452 -0.136102 21 5 1
-0.47537 0.0482113 -0.136087 23 0 3
-0.474687 0.0575778 -0.136868 40 15 7
-0.475016 0.0601492 -0.137698 49 18 7
-0.474806 0.0364473 -0.136952 44 1 1
-0.474471 0.0387031 -0.136937 42 1 1
-0.474135 0.0409603 -0.136923 28 10 3
-0.473799 0.043219 -0.136908 32 6 0
-0.473462 0.0454791 -0.136893 27 2 3
